<mxfile host="app.diagrams.net" agent="Mozilla/5.0 (Windows NT 10.0; Win64; x64) AppleWebKit/537.36 (KHTML, like Gecko) Chrome/134.0.0.0 Safari/537.36" version="26.1.3">
  <diagram name="Page-1" id="3oTTVfuTDmFACfDxYeo5">
    <mxGraphModel dx="849" dy="1674" grid="1" gridSize="10" guides="1" tooltips="1" connect="1" arrows="1" fold="1" page="1" pageScale="1" pageWidth="827" pageHeight="1169" math="0" shadow="0">
      <root>
        <mxCell id="0" />
        <mxCell id="1" parent="0" />
        <mxCell id="-5bRUaBdYw-qDZ-tbQ4K-1" value="" style="sketch=0;points=[[0,0,0],[0.25,0,0],[0.5,0,0],[0.75,0,0],[1,0,0],[0,1,0],[0.25,1,0],[0.5,1,0],[0.75,1,0],[1,1,0],[0,0.25,0],[0,0.5,0],[0,0.75,0],[1,0.25,0],[1,0.5,0],[1,0.75,0]];outlineConnect=0;fontColor=#232F3E;fillColor=#DD344C;strokeColor=#ffffff;dashed=0;verticalLabelPosition=bottom;verticalAlign=top;align=center;html=1;fontSize=12;fontStyle=0;aspect=fixed;shape=mxgraph.aws4.resourceIcon;resIcon=mxgraph.aws4.amplify;" vertex="1" parent="1">
          <mxGeometry x="395" y="-80" width="78" height="78" as="geometry" />
        </mxCell>
        <mxCell id="-5bRUaBdYw-qDZ-tbQ4K-2" value="" style="sketch=0;points=[[0,0,0],[0.25,0,0],[0.5,0,0],[0.75,0,0],[1,0,0],[0,1,0],[0.25,1,0],[0.5,1,0],[0.75,1,0],[1,1,0],[0,0.25,0],[0,0.5,0],[0,0.75,0],[1,0.25,0],[1,0.5,0],[1,0.75,0]];outlineConnect=0;fontColor=#232F3E;fillColor=#8C4FFF;strokeColor=#ffffff;dashed=0;verticalLabelPosition=bottom;verticalAlign=top;align=center;html=1;fontSize=12;fontStyle=0;aspect=fixed;shape=mxgraph.aws4.resourceIcon;resIcon=mxgraph.aws4.api_gateway;" vertex="1" parent="1">
          <mxGeometry x="395" y="80" width="78" height="78" as="geometry" />
        </mxCell>
        <mxCell id="-5bRUaBdYw-qDZ-tbQ4K-3" value="" style="sketch=0;points=[[0,0,0],[0.25,0,0],[0.5,0,0],[0.75,0,0],[1,0,0],[0,1,0],[0.25,1,0],[0.5,1,0],[0.75,1,0],[1,1,0],[0,0.25,0],[0,0.5,0],[0,0.75,0],[1,0.25,0],[1,0.5,0],[1,0.75,0]];outlineConnect=0;fontColor=#232F3E;fillColor=#ED7100;strokeColor=#ffffff;dashed=0;verticalLabelPosition=bottom;verticalAlign=top;align=center;html=1;fontSize=12;fontStyle=0;aspect=fixed;shape=mxgraph.aws4.resourceIcon;resIcon=mxgraph.aws4.lambda;" vertex="1" parent="1">
          <mxGeometry x="395" y="236" width="78" height="78" as="geometry" />
        </mxCell>
        <mxCell id="-5bRUaBdYw-qDZ-tbQ4K-4" value="" style="endArrow=classic;startArrow=classic;html=1;rounded=0;entryX=0;entryY=1;entryDx=0;entryDy=0;entryPerimeter=0;" edge="1" parent="1" target="-5bRUaBdYw-qDZ-tbQ4K-3">
          <mxGeometry width="50" height="50" relative="1" as="geometry">
            <mxPoint x="120" y="400" as="sourcePoint" />
            <mxPoint x="340" y="510" as="targetPoint" />
          </mxGeometry>
        </mxCell>
        <mxCell id="-5bRUaBdYw-qDZ-tbQ4K-5" value="" style="sketch=0;points=[[0,0,0],[0.25,0,0],[0.5,0,0],[0.75,0,0],[1,0,0],[0,1,0],[0.25,1,0],[0.5,1,0],[0.75,1,0],[1,1,0],[0,0.25,0],[0,0.5,0],[0,0.75,0],[1,0.25,0],[1,0.5,0],[1,0.75,0]];outlineConnect=0;fontColor=#232F3E;fillColor=#01A88D;strokeColor=#ffffff;dashed=0;verticalLabelPosition=bottom;verticalAlign=top;align=center;html=1;fontSize=12;fontStyle=0;aspect=fixed;shape=mxgraph.aws4.resourceIcon;resIcon=mxgraph.aws4.bedrock;" vertex="1" parent="1">
          <mxGeometry x="80" y="400" width="78" height="78" as="geometry" />
        </mxCell>
        <UserObject label="/translate" placeholders="1" name="Variable" id="-5bRUaBdYw-qDZ-tbQ4K-6">
          <mxCell style="text;html=1;strokeColor=none;fillColor=none;align=center;verticalAlign=middle;whiteSpace=wrap;overflow=hidden;" vertex="1" parent="1">
            <mxGeometry x="210" y="320" width="80" height="20" as="geometry" />
          </mxCell>
        </UserObject>
        <UserObject label="AWS OpenSearch Serverless&lt;div&gt;(Embedding Index)&lt;/div&gt;" placeholders="1" name="Variable" id="-5bRUaBdYw-qDZ-tbQ4K-7">
          <mxCell style="text;html=1;strokeColor=none;fillColor=none;align=center;verticalAlign=middle;whiteSpace=wrap;overflow=hidden;" vertex="1" parent="1">
            <mxGeometry x="259.2" y="488" width="200" height="40" as="geometry" />
          </mxCell>
        </UserObject>
        <mxCell id="-5bRUaBdYw-qDZ-tbQ4K-8" value="" style="points=[];aspect=fixed;html=1;align=center;shadow=0;dashed=0;fillColor=#FF6A00;strokeColor=none;shape=mxgraph.alibaba_cloud.opensearch;" vertex="1" parent="1">
          <mxGeometry x="320" y="400" width="78.39" height="78" as="geometry" />
        </mxCell>
        <UserObject label="AWS Bedrock&lt;br&gt;Claude 3.5 Sonnet" placeholders="1" name="Variable" id="-5bRUaBdYw-qDZ-tbQ4K-9">
          <mxCell style="text;html=1;strokeColor=none;fillColor=none;align=center;verticalAlign=middle;whiteSpace=wrap;overflow=hidden;" vertex="1" parent="1">
            <mxGeometry x="19" y="478" width="200" height="40" as="geometry" />
          </mxCell>
        </UserObject>
        <mxCell id="-5bRUaBdYw-qDZ-tbQ4K-10" value="" style="endArrow=classic;html=1;rounded=0;exitX=0.25;exitY=1;exitDx=0;exitDy=0;exitPerimeter=0;entryX=0.443;entryY=-0.017;entryDx=0;entryDy=0;entryPerimeter=0;" edge="1" parent="1" source="-5bRUaBdYw-qDZ-tbQ4K-3" target="-5bRUaBdYw-qDZ-tbQ4K-8">
          <mxGeometry width="50" height="50" relative="1" as="geometry">
            <mxPoint x="300" y="310" as="sourcePoint" />
            <mxPoint x="350" y="260" as="targetPoint" />
          </mxGeometry>
        </mxCell>
        <UserObject label="/verify" placeholders="1" name="Variable" id="-5bRUaBdYw-qDZ-tbQ4K-11">
          <mxCell style="text;html=1;strokeColor=none;fillColor=none;align=center;verticalAlign=middle;whiteSpace=wrap;overflow=hidden;" vertex="1" parent="1">
            <mxGeometry x="302" y="357" width="80" height="20" as="geometry" />
          </mxCell>
        </UserObject>
        <mxCell id="-5bRUaBdYw-qDZ-tbQ4K-14" value="" style="outlineConnect=0;dashed=0;verticalLabelPosition=bottom;verticalAlign=top;align=center;html=1;shape=mxgraph.aws3.cognito;fillColor=#AD688B;gradientColor=none;" vertex="1" parent="1">
          <mxGeometry x="480" y="392.5" width="76.5" height="93" as="geometry" />
        </mxCell>
        <mxCell id="-5bRUaBdYw-qDZ-tbQ4K-15" value="" style="endArrow=classic;startArrow=classic;html=1;rounded=0;entryX=0.75;entryY=1;entryDx=0;entryDy=0;entryPerimeter=0;exitX=0.5;exitY=0;exitDx=0;exitDy=0;exitPerimeter=0;shadow=0;fixDash=0;dashed=1;" edge="1" parent="1" source="-5bRUaBdYw-qDZ-tbQ4K-14" target="-5bRUaBdYw-qDZ-tbQ4K-3">
          <mxGeometry width="50" height="50" relative="1" as="geometry">
            <mxPoint x="300" y="310" as="sourcePoint" />
            <mxPoint x="350" y="260" as="targetPoint" />
          </mxGeometry>
        </mxCell>
        <UserObject label="AWS Cognito&lt;br&gt;(User Auth)" placeholders="1" name="Variable" id="-5bRUaBdYw-qDZ-tbQ4K-16">
          <mxCell style="text;html=1;strokeColor=none;fillColor=none;align=center;verticalAlign=middle;whiteSpace=wrap;overflow=hidden;" vertex="1" parent="1">
            <mxGeometry x="452.2" y="490" width="135.8" height="40" as="geometry" />
          </mxCell>
        </UserObject>
        <mxCell id="-5bRUaBdYw-qDZ-tbQ4K-17" value="" style="outlineConnect=0;dashed=0;verticalLabelPosition=bottom;verticalAlign=top;align=center;html=1;shape=mxgraph.aws3.dynamo_db;fillColor=#2E73B8;gradientColor=none;" vertex="1" parent="1">
          <mxGeometry x="640" y="398.5" width="72" height="81" as="geometry" />
        </mxCell>
        <mxCell id="-5bRUaBdYw-qDZ-tbQ4K-18" value="" style="endArrow=classic;html=1;rounded=0;exitX=1;exitY=1;exitDx=0;exitDy=0;exitPerimeter=0;entryX=0.5;entryY=0;entryDx=0;entryDy=0;entryPerimeter=0;dashed=1;" edge="1" parent="1" source="-5bRUaBdYw-qDZ-tbQ4K-3" target="-5bRUaBdYw-qDZ-tbQ4K-17">
          <mxGeometry width="50" height="50" relative="1" as="geometry">
            <mxPoint x="300" y="310" as="sourcePoint" />
            <mxPoint x="350" y="260" as="targetPoint" />
          </mxGeometry>
        </mxCell>
        <UserObject label="AWS DynamoDB&lt;br&gt;(Store Student Learning Progress)" placeholders="1" name="Variable" id="-5bRUaBdYw-qDZ-tbQ4K-19">
          <mxCell style="text;html=1;strokeColor=none;fillColor=none;align=center;verticalAlign=middle;whiteSpace=wrap;overflow=hidden;" vertex="1" parent="1">
            <mxGeometry x="606.2" y="489" width="135.8" height="57" as="geometry" />
          </mxCell>
        </UserObject>
        <mxCell id="-5bRUaBdYw-qDZ-tbQ4K-20" value="" style="endArrow=classic;startArrow=classic;html=1;rounded=0;entryX=0.5;entryY=1;entryDx=0;entryDy=0;entryPerimeter=0;exitX=0.5;exitY=0;exitDx=0;exitDy=0;exitPerimeter=0;" edge="1" parent="1" source="-5bRUaBdYw-qDZ-tbQ4K-2" target="-5bRUaBdYw-qDZ-tbQ4K-1">
          <mxGeometry width="50" height="50" relative="1" as="geometry">
            <mxPoint x="300" y="180" as="sourcePoint" />
            <mxPoint x="350" y="130" as="targetPoint" />
          </mxGeometry>
        </mxCell>
        <mxCell id="-5bRUaBdYw-qDZ-tbQ4K-21" value="" style="endArrow=classic;startArrow=classic;html=1;rounded=0;entryX=0.5;entryY=1;entryDx=0;entryDy=0;entryPerimeter=0;exitX=0.5;exitY=0;exitDx=0;exitDy=0;exitPerimeter=0;" edge="1" parent="1" source="-5bRUaBdYw-qDZ-tbQ4K-3" target="-5bRUaBdYw-qDZ-tbQ4K-2">
          <mxGeometry width="50" height="50" relative="1" as="geometry">
            <mxPoint x="300" y="180" as="sourcePoint" />
            <mxPoint x="350" y="130" as="targetPoint" />
          </mxGeometry>
        </mxCell>
        <UserObject label="Amplify UI&lt;br&gt;(Angular)" placeholders="1" name="Variable" id="-5bRUaBdYw-qDZ-tbQ4K-22">
          <mxCell style="text;html=1;strokeColor=none;fillColor=none;align=center;verticalAlign=middle;whiteSpace=wrap;overflow=hidden;" vertex="1" parent="1">
            <mxGeometry x="427.1" y="-51" width="180" height="20" as="geometry" />
          </mxCell>
        </UserObject>
        <UserObject label="Lambda" placeholders="1" name="Variable" id="-5bRUaBdYw-qDZ-tbQ4K-23">
          <mxCell style="text;html=1;strokeColor=none;fillColor=none;align=center;verticalAlign=middle;whiteSpace=wrap;overflow=hidden;" vertex="1" parent="1">
            <mxGeometry x="455.5" y="265" width="107" height="20" as="geometry" />
          </mxCell>
        </UserObject>
        <UserObject label="API Gateway" placeholders="1" name="Variable" id="-5bRUaBdYw-qDZ-tbQ4K-24">
          <mxCell style="text;html=1;strokeColor=none;fillColor=none;align=center;verticalAlign=middle;whiteSpace=wrap;overflow=hidden;" vertex="1" parent="1">
            <mxGeometry x="435" y="119" width="180" height="20" as="geometry" />
          </mxCell>
        </UserObject>
      </root>
    </mxGraphModel>
  </diagram>
</mxfile>
